<svg xmlns="http://www.w3.org/2000/svg" viewBox="0 0 139.44 100"><defs><style>.a{fill:#6d1b89;}.b{fill:#fff;}.c{fill:#1b2235;}</style></defs><rect class="a" width="139.44" height="100" rx="45.57"/><path class="a" d="M89,35c-4.69,0-9.26.15-13.8-.1-1.21-.07-2.45-1.26-3.48-2.14-8.82-7.47-19.15-9-28.33-4.23A24.1,24.1,0,0,0,30.63,54.59c2.07,9.93,11.05,18.07,21.5,19.34,6.37.77,12.28-.74,16.81-5a13.41,13.41,0,0,1,11.22-3.73c2.69.24,5.42,0,8.2,0C86,76.89,67.84,87.22,52.48,86.09,32.6,84.62,17.15,69.59,16.38,51c-.75-18,13.34-34.12,32.35-36.93C65.74,11.52,84.88,21.3,89,35Z"/><path class="a" d="M74.64,15.1c15.56-4.34,33.08,1.93,42,14.79,9.48,13.7,8.45,30.8-2.63,43.36-9.54,10.83-27.63,16-39.09,11.43,3.85-3.29,7.73-6.69,11.74-10a8,8,0,0,1,3.14-1.19c11.46-2.77,19.28-12.08,19.45-23.23s-7.39-20.63-18.73-23.82a15.89,15.89,0,0,1-5-2.82C81.9,21,78.45,18.13,74.64,15.1Z"/><path class="a" d="M67,32.08c-9.88,13.15-9.9,21.17-.44,35.34a38.76,38.76,0,0,1-3.5,2.12C55.81,73,52.42,72,49.19,65.07c-5.07-10.86-4.66-21.57.92-32.28,2.08-4,4.75-5.15,9-3.71C61.59,30,64.06,31,67,32.08Z"/><rect class="b" width="139.44" height="100" rx="45.57"/><path class="c" d="M89,35c-4.69,0-9.26.15-13.8-.1-1.21-.07-2.45-1.26-3.48-2.14-8.82-7.47-19.15-9-28.33-4.23A24.1,24.1,0,0,0,30.63,54.59c2.07,9.93,11.05,18.07,21.5,19.34,6.37.77,12.28-.74,16.81-5a13.41,13.41,0,0,1,11.22-3.73c2.69.24,5.42,0,8.2,0C86,76.89,67.84,87.22,52.48,86.09,32.6,84.62,17.15,69.59,16.38,51c-.75-18,13.34-34.12,32.35-36.93C65.74,11.52,84.88,21.3,89,35Z"/><path class="c" d="M74.64,15.1c15.56-4.34,33.08,1.93,42,14.79,9.48,13.7,8.45,30.8-2.63,43.36-9.54,10.83-27.63,16-39.09,11.43,3.85-3.29,7.73-6.69,11.74-10a8,8,0,0,1,3.14-1.19c11.46-2.77,19.28-12.08,19.45-23.23s-7.39-20.63-18.73-23.82a15.89,15.89,0,0,1-5-2.82C81.9,21,78.45,18.13,74.64,15.1Z"/><path class="a" d="M67,32.08c-9.88,13.15-9.9,21.17-.44,35.34a38.76,38.76,0,0,1-3.5,2.12C55.81,73,52.42,72,49.19,65.07c-5.07-10.86-4.66-21.57.92-32.28,2.08-4,4.75-5.15,9-3.71C61.59,30,64.06,31,67,32.08Z"/></svg>